<?xml version="1.0" encoding="UTF-8" standalone="no"?>
<!-- Created with Inkscape (http://www.inkscape.org/) -->

<svg
   xmlns:dc="http://purl.org/dc/elements/1.1/"
   xmlns:cc="http://creativecommons.org/ns#"
   xmlns:rdf="http://www.w3.org/1999/02/22-rdf-syntax-ns#"
   xmlns:svg="http://www.w3.org/2000/svg"
   xmlns="http://www.w3.org/2000/svg"
   xmlns:sodipodi="http://sodipodi.sourceforge.net/DTD/sodipodi-0.dtd"
   xmlns:inkscape="http://www.inkscape.org/namespaces/inkscape"
   width="35.419685mm"
   height="36.280422mm"
   viewBox="0 0 35.419685 36.280422"
   version="1.1"
   id="svg2302"
   inkscape:version="0.92.3 (2405546, 2018-03-11)"
   sodipodi:docname="pipeline.svg">
  <defs
     id="defs2296">
    <clipPath
       clipPathUnits="userSpaceOnUse"
       id="clipPath120">
      <path
         d="M -7.877e-6,1.8311e-4 H 959.99999 V 540.00018 H -7.877e-6 Z"
         id="path118"
         inkscape:connector-curvature="0"
         style="clip-rule:evenodd" />
    </clipPath>
    <clipPath
       clipPathUnits="userSpaceOnUse"
       id="clipPath130">
      <path
         d="M 0,0 H 11.516 V 11.516 H 0 Z"
         id="path128"
         inkscape:connector-curvature="0" />
    </clipPath>
  </defs>
  <sodipodi:namedview
     id="base"
     pagecolor="#ffffff"
     bordercolor="#666666"
     borderopacity="1.0"
     inkscape:pageopacity="0.0"
     inkscape:pageshadow="2"
     inkscape:zoom="0.35"
     inkscape:cx="-398.77944"
     inkscape:cy="11.418583"
     inkscape:document-units="mm"
     inkscape:current-layer="layer1"
     showgrid="false"
     inkscape:window-width="1920"
     inkscape:window-height="1172"
     inkscape:window-x="0"
     inkscape:window-y="0"
     inkscape:window-maximized="1" />
  <metadata
     id="metadata2299">
    <rdf:RDF>
      <cc:Work
         rdf:about="">
        <dc:format>image/svg+xml</dc:format>
        <dc:type
           rdf:resource="http://purl.org/dc/dcmitype/StillImage" />
        <dc:title></dc:title>
      </cc:Work>
    </rdf:RDF>
  </metadata>
  <g
     inkscape:label="Layer 1"
     inkscape:groupmode="layer"
     id="layer1"
     transform="translate(-72.24849,-115.57408)">
    <g
       transform="matrix(0.35277777,0,0,-0.35277777,38.200463,165.09653)"
       id="g114">
      <g
         id="g116"
         clip-path="url(#clipPath120)">
        <g
           id="g122"
           transform="matrix(1.9683,0,0,1.9683,75.84,18.48)">
          <g
             id="g124"
             transform="scale(6.2521,6.2523)">
            <g
               id="g126"
               clip-path="url(#clipPath130)">
              <path
                 d="m 9.72,2.7485 c 0,-0.6628 -0.5373,-1.2 -1.2,-1.2 -0.6627,0 -1.2,0.5372 -1.2,1.2 0,0.6627 0.5373,1.2 1.2,1.2 0.6627,0 1.2,-0.5373 1.2,-1.2 z"
                 style="fill:#bfbfbf;fill-opacity:1;fill-rule:nonzero;stroke:none"
                 id="path132"
                 inkscape:connector-curvature="0" />
              <path
                 d="m 4.08,8.6285 c 0,-0.6628 -0.5373,-1.2 -1.2,-1.2 -0.6627,0 -1.2,0.5372 -1.2,1.2 0,0.6627 0.5373,1.2 1.2,1.2 0.6627,0 1.2,-0.5373 1.2,-1.2 z"
                 style="fill:#bfbfbf;fill-opacity:1;fill-rule:nonzero;stroke:none"
                 id="path134"
                 inkscape:connector-curvature="0" />
              <path
                 d="M 8.52,7.3109 7.2012,8.6297 8.52,9.9053 9.8388,8.6297 Z"
                 style="fill:#bfbfbf;fill-opacity:1;fill-rule:nonzero;stroke:none"
                 id="path136"
                 inkscape:connector-curvature="0" />
              <path
                 d="m 1.68,1.5557 h 2.4 v 2.4 h -2.4 z"
                 style="fill:#bfbfbf;fill-opacity:1;fill-rule:nonzero;stroke:none"
                 id="path138"
                 inkscape:connector-curvature="0" />
              <path
                 d="M 6.8244,2.9885 H 5.04 l 0.24,0.24 c 0.0822,0.0822 0.0822,0.2154 0,0.2976 -0.0822,0.0822 -0.2154,0.0822 -0.2976,0 l -0.63,-0.63 C 4.3136,2.8562 4.2917,2.8029 4.2912,2.7473 4.2914,2.6916 4.3134,2.6382 4.3524,2.5985 l 0.63,-0.63 c 0.0825,-0.0822 0.216,-0.0819 0.2982,6e-4 0.0822,0.0825 0.0819,0.216 -6e-4,0.2982 l -0.24,0.24 h 1.7844 z"
                 style="fill:#bfbfbf;fill-opacity:1;fill-rule:nonzero;stroke:none"
                 id="path140"
                 inkscape:connector-curvature="0" />
              <path
                 d="m 6.906,8.7833 -0.63,0.63 C 6.1938,9.4951 6.0609,9.4949 5.979,9.4127 5.8971,9.3305 5.8974,9.1975 5.9796,9.1157 l 0.24,-0.24 H 4.56 v -0.48 h 1.6608 l -0.24,-0.24 C 5.898,8.0742 5.8969,7.9409 5.9784,7.8581 6.0599,7.7752 6.1932,7.7742 6.276,7.8557 l 0.63,0.63 c 0.0818,0.0823 0.0818,0.2152 0,0.2976 z"
                 style="fill:#bfbfbf;fill-opacity:1;fill-rule:nonzero;stroke:none"
                 id="path142"
                 inkscape:connector-curvature="0" />
              <path
                 d="m 9.3024,5.1725 c -0.0824,0.0817 -0.2152,0.0817 -0.2976,0 l -0.24,-0.24 V 6.8357 H 8.28 V 4.9301 l -0.24,0.24 C 7.9578,5.2519 7.8249,5.2517 7.743,5.1695 7.6611,5.0873 7.6614,4.9543 7.7436,4.8725 l 0.6288,-0.63 c 0.0824,-0.0818 0.2152,-0.0818 0.2976,0 l 0.63,0.63 c 0.0835,0.0814 0.0852,0.2151 0.0037,0.2986 -4e-4,5e-4 -9e-4,9e-4 -0.0013,0.0014 z"
                 style="fill:#bfbfbf;fill-opacity:1;fill-rule:nonzero;stroke:none"
                 id="path144"
                 inkscape:connector-curvature="0" />
            </g>
          </g>
        </g>
      </g>
    </g>
  </g>
</svg>
